<svg width="2741" height="402" viewBox="0 0 2741 402" fill="none" xmlns="http://www.w3.org/2000/svg">
<path d="M382.215 401.177L317.209 401.177C317.209 387.333 304.268 344.296 278.386 271.464L100.519 271.464C74.9375 343.092 62.2967 386.43 62.2967 401.177L7.37912e-06 401.177C7.24073e-06 393.653 26.4829 328.044 79.4515 204.049C132.42 80.3557 158.905 12.3393 158.905 3.49816e-06L230.232 5.06837e-06C230.232 12.0383 255.513 79.1519 306.074 201.04C356.935 323.229 382.215 390.041 382.215 401.177ZM263.939 231.136C215.785 110.452 191.409 46.6485 191.409 38.8236L188.099 38.8236C188.099 45.1437 163.118 109.248 113.159 231.136L263.939 231.136Z" fill="#E0C1F5"/>
<path d="M648.259 362.059L646.755 401.485L436.084 401.485C438.191 357.545 439.394 296.451 439.394 218.202C439.394 151.088 438.191 96.0127 436.084 52.6748L485.741 52.6748C483.635 88.7897 482.431 143.865 482.431 218.202C482.431 279.296 481.529 328.051 479.422 365.069C532.993 364.768 589.272 363.865 648.259 362.059Z" fill="#E0C1F5"/>
<path d="M908.598 52.6748L907.395 90.2945C872.183 88.4888 835.466 87.5859 797.846 87.5859C797.545 121.895 797.245 165.233 797.245 217.901C797.245 275.985 798.147 337.08 799.953 401.184L750.897 401.184C753.003 340.39 754.209 279.296 754.209 217.901C754.209 165.835 753.605 122.497 752.702 87.5859C726.218 87.5859 689.202 88.7898 641.349 90.8965L642.553 52.6748L908.598 52.6748V52.6748Z" fill="#E0C1F5"/>
<path d="M1182.17 360.851L1180.66 401.18L964.876 401.18C967.284 345.803 968.487 284.709 968.487 217.896C968.487 154.996 967.284 99.921 964.876 52.3696L1167.42 52.3696L1165.31 92.3971C1116.26 90.2904 1064.19 89.0865 1009.12 89.0865C1010.32 116.775 1010.62 154.093 1010.62 201.344C1058.17 201.344 1100.31 200.14 1137.63 198.033L1137.63 238.061C1097.9 236.556 1055.76 235.653 1010.62 235.653C1010.62 281.399 1011.52 324.436 1013.03 364.764C1072.32 364.764 1128.6 363.56 1182.17 360.851Z" fill="#E0C1F5"/>
<path d="M1514.42 401.173L1462.65 401.173C1445.5 350.01 1433.16 316.002 1425.03 299.45C1415.1 278.684 1403.66 265.14 1391.02 259.121C1381.09 254.306 1363.04 251.898 1337.15 251.898C1322.11 251.898 1308.56 252.199 1296.82 252.5C1296.82 310.284 1298.03 359.641 1300.13 401.474L1250.48 401.474C1253.19 346.098 1254.39 285.004 1254.39 218.191C1254.39 155.291 1253.19 100.216 1250.48 52.6642L1288.1 52.6642C1296.22 52.6642 1306.15 52.3632 1318.49 51.7612C1330.83 51.1593 1344.98 50.8584 1360.93 50.8584C1439.18 50.8584 1478.3 77.9447 1478.3 131.816C1478.3 176.659 1456.33 208.259 1412.39 226.317L1412.39 229.025C1431.96 235.045 1447.9 248.588 1459.94 269.956C1470.18 288.013 1488.23 331.652 1514.42 401.173ZM1432.26 150.174C1432.26 107.739 1403.36 86.3714 1346.18 86.3714C1325.72 86.3714 1308.56 87.5752 1294.42 89.9829C1295.62 120.982 1296.22 163.116 1296.22 216.686C1307.06 216.987 1317.29 217.288 1326.92 217.288C1397.34 216.987 1432.26 194.716 1432.26 150.174Z" fill="#E0C1F5"/>
<path d="M1846.38 0.305183L1844.88 43.6432C1804.25 41.5365 1762.12 40.6335 1718.78 40.6335C1718.48 80.059 1718.18 130.018 1718.18 190.511C1718.18 257.323 1719.08 327.747 1721.19 401.181L1664.91 401.181C1667.31 331.058 1668.52 260.935 1668.52 190.511C1668.52 130.62 1667.92 80.6609 1666.71 40.6335C1636.32 40.6335 1593.58 41.8373 1538.51 44.245L1540.01 0.305176L1846.38 0.305183V0.305183Z" fill="#E0C1F5"/>
<path d="M1954.42 401.18L1903.56 401.18C1906.27 343.396 1907.47 282.301 1907.47 217.896C1907.47 154.695 1906.27 99.62 1903.56 52.3696L1954.42 52.3696C1952.01 101.125 1950.81 156.2 1950.81 217.896C1950.81 282.903 1952.01 343.697 1954.42 401.18Z" fill="#E0C1F5"/>
<path d="M2428.42 401.175L2378.16 401.175C2378.16 361.449 2375.46 303.665 2369.74 228.425C2364.32 153.186 2361.31 108.042 2361.01 92.9943L2358.3 92.9943C2340.54 151.079 2317.97 213.979 2290.28 281.996C2262.9 350.012 2249.05 389.739 2249.05 401.175L2212.94 401.175C2212.94 388.535 2200.3 348.206 2174.72 279.889C2149.13 211.572 2133.18 165.525 2126.26 142.351C2119.34 119.178 2114.82 102.625 2112.42 92.9942L2109.71 92.9942C2109.11 117.372 2105.5 166.729 2099.18 241.065C2092.56 315.402 2089.55 368.672 2089.55 401.175L2043.5 401.175C2043.5 399.369 2049.52 350.313 2061.56 253.706C2073.6 157.098 2079.61 90.2856 2079.61 52.3649L2150.04 52.3649C2150.04 71.9271 2164.18 120.983 2192.77 199.533C2221.37 278.083 2235.51 325.635 2235.51 342.187L2238.22 342.187C2238.22 325.635 2254.17 277.782 2286.37 198.931C2318.57 120.08 2334.52 71.3253 2334.52 52.064L2403.44 52.064C2403.44 89.6837 2407.66 156.496 2415.78 252.201C2424.21 348.808 2428.42 398.165 2428.42 401.175Z" fill="#E0C1F5"/>
<path d="M2740.53 360.851L2739.02 401.18L2523.23 401.18C2525.64 345.803 2526.85 284.709 2526.85 217.896C2526.85 154.996 2525.64 99.921 2523.23 52.3696L2725.78 52.3696L2723.67 92.3971C2674.62 90.2904 2622.55 89.0865 2567.48 89.0865C2568.68 116.775 2568.98 154.093 2568.98 201.344C2616.53 201.344 2658.66 200.14 2695.98 198.033L2695.98 238.061C2656.26 236.556 2614.12 235.653 2568.98 235.653C2568.98 281.399 2569.88 324.436 2571.39 364.764C2630.68 364.764 2686.96 363.56 2740.53 360.851Z" fill="#E0C1F5"/>
</svg>
