<svg width="424" height="421" viewBox="0 0 424 421" fill="none" xmlns="http://www.w3.org/2000/svg">
<path d="M389.875 150.39L389.703 34.0912H271.797L211.983 0.108398L152.226 34.0912H34.3192L34.2619 150.39L0.279053 210.147L34.3766 269.904V386.203H152.283L212.04 420.243L271.854 386.261H389.761V269.732L423.916 210.147L389.875 150.39ZM250.213 355.894L212.04 319.902L173.867 355.894H64.9153L64.9725 248.378L101.022 210.147L64.9725 171.917L64.9153 64.3427H173.809L212.04 100.392L250.27 64.3427H359.165V171.974L323.173 210.147L359.165 248.32V355.894H250.213V355.894Z" fill="#FF1F00"/>
<path d="M291.318 153.203C291.318 153.203 286.266 148.152 288.103 145.454C289.94 142.756 294.073 144.134 294.073 144.134L306.989 149.529C265.543 98.1535 97.6961 121.689 97.6961 121.689C97.6961 121.689 96.6629 121.861 96.6629 122.665C96.6629 123.468 98.4424 123.928 98.4424 123.928C98.4424 123.928 100.164 124.1 116.697 128.405C133.229 132.71 133.631 144.421 133.631 144.421C133.631 144.421 133.631 241.145 133.631 267.665C133.631 294.128 105.905 299.065 101.025 300.5C96.1461 301.878 97.6961 303.944 97.6961 303.944C144.135 300.271 210.609 301.935 210.609 301.935C267.84 301.935 313.877 253.716 313.877 216.117C313.82 178.518 291.318 153.203 291.318 153.203ZM189.886 281.385C189.886 281.385 172.665 283.107 172.665 264.968C172.665 246.828 172.722 142.182 172.722 142.182C172.722 142.182 172.148 138.451 175.765 135.58C179.381 132.71 189.427 133.686 189.427 133.686C189.427 133.686 271.743 130.357 271.743 215.084C271.743 215.084 278.402 281.385 189.886 281.385Z" fill="#FF1F00"/>
</svg>
