<svg width="42" height="57" viewBox="0 0 42 57" fill="none" xmlns="http://www.w3.org/2000/svg">
<path d="M28.2548 53.3708C27.963 51.7605 28.3597 48.8966 28.3597 48.8966C28.9693 49.7189 29.1212 51.613 29.1212 51.613C31.2872 48.4177 32.3188 42.5895 32.3188 42.5895C32.6084 43.4922 32.5763 45.1286 32.5763 45.1286C36.5674 39.9082 36.4208 34.6654 36.4208 34.6654C36.7736 34.9909 37.2359 36.6965 37.2359 36.6965C40.5995 31.7986 39.2143 25.7015 39.2143 25.7015C40.2057 26.1938 41.9988 28.1959 41.9988 28.1959C42.0926 20.8579 36.5749 16.1656 36.5749 16.1656C38.956 16.0024 41.5917 17.3163 41.5917 17.3163C39.5113 12.3908 33.3869 9.64094 33.3869 9.64094C34.9835 9.1866 37.253 9.33184 37.253 9.33184C33.2946 6.10901 26.2801 6.17976 26.2801 6.17976C28.5361 4.44732 31.3586 3.67717 31.3586 3.67717C27.4829 2.16295 21.8632 4.70875 21.8632 4.70875C22.9202 3.28987 24.7207 1.64828 24.7207 1.64828C22.2212 1.35781 18.4266 3.92147 18.4266 3.92147C18.6708 2.56516 18.3083 0.323996 18.2532 0L18.2212 0.00446891C15.5156 4.85324 12.5598 8.14758 12.5598 8.14758C12.5628 7.16739 11.5825 4.08682 11.5825 4.08682C11.2319 5.83044 10.236 8.00681 10.236 8.00681C10.3149 7.29252 9.77231 5.94738 9.77231 5.94738L7.41576 13.3516C7.38078 13.0276 6.85826 12.3886 6.85826 12.3886C6.72725 15.1764 5.35024 18.7173 5.35024 18.7173L5.58247 20.487L2.33943 23.9415L0 24.4003L0.843326 25.8758L1.14776 27.8667C3.38298 29.9566 6.54341 29.5589 6.54341 29.5589L5.62341 28.4886C7.63162 28.8722 8.6707 28.2629 8.6707 28.2629L7.39492 26.8224L8.8084 26.8001L8.66996 25.0684L12.6372 22.9538L14.0187 27.3088L11.6837 28.5124L12.2934 29.1008L10.3849 29.9596L10.9863 30.6769L8.69675 30.8601C8.69675 30.8601 12.1594 34.9179 17.7165 30.4624C17.7165 30.4624 16.941 29.8635 16.5852 28.7925C15.7403 26.2482 17.5573 21.4359 27.372 24.1724C27.372 24.1724 26.743 30.376 19.5282 35.7729C19.5282 35.7729 20.4438 36.6712 23.1464 36.6727C23.1464 36.6727 21.2469 37.6417 17.7031 37.1084C17.7031 37.1084 13.9495 39.0516 11.1404 42.489C11.1404 42.489 12.5092 43.2777 15.2059 43.3075C15.2059 43.3075 12.2338 44.2534 9.98891 44.0791C9.98891 44.0791 7.04211 46.3568 6.33127 51.4238C6.33127 51.4238 7.32644 52.2975 9.78571 52.4271L6.14296 53.6061C6.14296 53.6061 12.99 58.3395 28.3262 56.6264C28.3419 56.499 28.5346 54.9163 28.2548 53.3708ZM9.97923 18.6093C8.73546 19.8479 7.24233 18.8283 7.24233 18.8283L12.3618 13.9542C12.3618 13.9542 11.2238 17.3707 9.97923 18.6093Z" fill="black"/>
<path d="M7.24219 18.8283C7.24219 18.8283 8.73531 19.8479 9.97909 18.6093C11.2236 17.3707 12.3617 13.9542 12.3617 13.9542L7.24219 18.8283Z" fill="#F4FFB1"/>
</svg>
