<svg width="314" height="427" viewBox="0 0 314 427" fill="none" xmlns="http://www.w3.org/2000/svg">
<path d="M211.238 399.01C209.057 386.971 212.023 365.561 212.023 365.561C216.58 371.708 217.715 385.869 217.715 385.869C233.909 361.98 241.622 318.407 241.622 318.407C243.786 325.156 243.547 337.39 243.547 337.39C273.385 298.361 272.289 259.165 272.289 259.165C274.927 261.598 278.382 274.35 278.382 274.35C303.529 237.732 293.173 192.149 293.173 192.149C300.586 195.83 313.991 210.798 313.991 210.798C314.692 155.938 273.441 120.857 273.441 120.857C291.242 119.637 310.947 129.46 310.947 129.46C295.394 92.6361 249.607 72.0775 249.607 72.0775C261.543 68.6808 278.51 69.7666 278.51 69.7666C248.917 45.6721 196.475 46.2011 196.475 46.2011C213.342 33.249 234.443 27.4912 234.443 27.4912C205.467 16.1707 163.453 35.2035 163.453 35.2035C171.355 24.5957 184.817 12.3229 184.817 12.3229C166.13 10.1512 137.761 29.3177 137.761 29.3177C139.586 19.1776 136.876 2.42226 136.464 0L136.225 0.0334105C115.997 36.2838 93.8996 60.9128 93.8996 60.9128C93.9219 53.5848 86.5931 30.5539 86.5931 30.5539C83.9721 43.5895 76.5265 59.8604 76.5265 59.8604C77.1164 54.5203 73.0596 44.4638 73.0596 44.4638L55.4416 99.8193C55.1801 97.3971 51.2736 92.6194 51.2736 92.6194C50.2942 113.462 39.9994 139.934 39.9994 139.934L41.7356 153.165L17.49 178.991L0 182.421L6.30486 193.452L8.58085 208.336C25.2918 223.961 48.9197 220.988 48.9197 220.988L42.0417 212.986C57.0554 215.854 64.8238 211.299 64.8238 211.299L55.2858 200.53L65.8533 200.363L64.8182 187.416L94.4784 171.607L104.807 204.166L87.3499 213.164L91.9075 217.563L77.6394 223.984L82.1358 229.346L65.0186 230.716C65.0186 230.716 90.9058 261.053 132.452 227.742C132.452 227.742 126.654 223.265 123.994 215.258C117.678 196.236 131.261 160.259 204.638 180.717C204.638 180.717 199.936 227.096 145.997 267.445C145.997 267.445 152.841 274.161 173.047 274.172C173.047 274.172 158.846 281.416 132.352 277.429C132.352 277.429 104.289 291.957 83.2877 317.656C83.2877 317.656 93.5212 323.552 113.682 323.775C113.682 323.775 91.4623 330.847 74.679 329.544C74.679 329.544 52.6481 346.572 47.3338 384.454C47.3338 384.454 54.7739 390.986 73.1598 391.955L45.9259 400.77C45.9259 400.77 97.1161 436.157 211.772 423.35C211.889 422.397 213.33 410.564 211.238 399.01ZM74.6066 139.127C65.3079 148.387 54.145 140.764 54.145 140.764L92.4194 104.324C92.4194 104.324 83.9109 129.866 74.6066 139.127Z" fill="black"/>
<path d="M54.144 140.764C54.144 140.764 65.3069 148.387 74.6056 139.127C83.9098 129.867 92.4184 104.324 92.4184 104.324L54.144 140.764Z" fill="#F4FFB1"/>
</svg>
