<svg width="433" height="431" viewBox="0 0 433 431" fill="none" xmlns="http://www.w3.org/2000/svg">
<path d="M77.1288 170.2L0.724854 215.721L77.3583 261.185C72.5939 246.776 70.0107 231.392 70.0107 215.377C70.0107 199.591 72.5366 184.379 77.1288 170.2Z" fill="#E78D01"/>
<path d="M355.881 170.2C360.474 184.436 363.057 199.591 363.057 215.377C363.057 231.392 360.473 246.776 355.652 261.185L432.285 215.721L355.881 170.2Z" fill="#E78D01"/>
<path d="M260.992 76.6334L215.528 0L170.007 76.4038C184.243 71.8116 199.398 69.2284 215.184 69.2284C231.142 69.2284 246.583 71.869 260.992 76.6334Z" fill="#E78D01"/>
<path d="M170.007 353.891L215.528 430.295L260.934 353.661C246.526 358.426 231.142 361.066 215.126 361.066C199.398 361.066 184.243 358.541 170.007 353.891Z" fill="#E78D01"/>
<path d="M355.992 215.492C355.992 185.987 346.865 158.606 331.366 135.989L347.956 82.8906L296.752 100.858C273.905 84.6127 245.95 75.0264 215.813 75.0264C186.136 75.0264 158.582 84.3257 135.908 100.112L84.1873 82.8906L99.9732 136.391C84.6465 158.95 75.6342 186.159 75.6342 215.55C75.6342 244.883 84.589 272.092 99.9157 294.594L84.1873 348.037L135.85 330.93C158.525 346.774 186.078 356.073 215.813 356.073C245.892 356.073 273.733 346.544 296.522 330.414L347.956 348.037L331.538 294.824C346.98 272.207 355.992 244.94 355.992 215.492ZM215.813 332.997C151.292 332.997 99.0547 280.588 99.0547 215.952C99.0547 151.315 151.349 98.9062 215.813 98.9062C280.277 98.9062 332.572 151.315 332.572 215.952C332.629 280.588 280.334 332.997 215.813 332.997Z" fill="#E78D01"/>
<path d="M215.814 106.54C155.771 106.54 107.092 155.333 107.092 215.492C107.092 275.65 155.771 324.443 215.814 324.443C275.858 324.443 324.536 275.65 324.536 215.492C324.536 155.333 275.858 106.54 215.814 106.54ZM284.411 229.154C283.895 235.87 282.402 242.471 279.417 248.556C277.236 252.976 275.17 257.511 272.414 261.529C269.888 265.145 266.502 268.13 263.402 271.345C258.35 276.626 251.692 279.668 245.32 282.883C238.087 286.499 230.51 289.484 222.473 290.977C219.086 291.608 215.757 292.756 212.37 293.56C211.165 293.847 209.902 293.847 208.696 294.077C203.473 295.167 198.134 295.627 192.911 294.88C187.285 294.134 181.545 293.388 176.206 290.977C172.762 289.427 169.031 288.509 165.644 286.959C161.741 285.179 158.067 283.055 154.278 281.046C154.335 280.817 154.393 280.587 154.508 280.357C156.172 280.128 157.895 279.898 159.559 279.726C163.864 279.381 168.285 279.439 172.532 278.807C178.732 277.832 184.989 276.798 191.074 275.076C197.101 273.354 203.014 271.115 208.754 268.475C215.068 265.605 221.21 262.333 226.319 257.339C230.051 253.722 234.126 250.45 237.857 246.834C241.646 243.217 244.688 239.027 246.87 234.205C248.19 231.335 249.97 228.694 251.118 225.824C252.208 223.069 252.782 220.141 253.528 217.271C254.504 213.482 255.021 209.636 254.389 205.676C254.102 203.896 253.701 202.059 253.299 200.28C251.749 193.104 248.133 186.905 243.885 181.107C241.589 177.95 239.12 174.85 236.193 172.324C233.782 170.258 231.199 168.363 227.812 167.502C222.933 166.24 218.111 165.665 213.116 165.78C208.295 165.895 203.817 167.273 199.397 168.995C196.125 170.258 192.681 171.234 189.753 173.013C184.3 176.342 178.962 180.246 177.699 187.077C177.01 190.98 177.067 194.999 178.502 198.902C179.535 201.772 179.995 204.872 181.2 207.685C182.233 210.096 183.611 212.507 185.276 214.516C187.687 217.386 191.188 217.386 194.231 214.918C197.79 211.99 199.454 211.588 196.642 204.7C196.182 203.494 195.551 202.346 194.92 201.256C194.001 199.648 194.862 198.156 196.986 197.122C200.947 195.171 205.08 194.482 209.328 195.458C214.322 196.606 218.685 198.672 221.038 203.666C222.186 206.077 223.506 208.374 224.655 210.784C226.893 215.606 226.549 220.715 226.319 225.824C226.204 229.268 225.286 232.368 223.162 235.238C220.923 238.338 217.766 240.06 214.609 241.725C212.026 243.103 209.27 244.193 206.515 245.112C203.932 245.915 201.234 246.604 198.536 246.834C192.738 247.236 186.998 247.637 181.143 246.202C175.173 244.767 170.523 241.438 166.218 237.592C163.061 234.722 160.65 231.048 158.182 227.489C155.885 224.159 153.991 220.6 151.925 217.099C151.81 216.927 151.752 216.697 151.695 216.525C150.432 212.22 148.825 207.914 147.964 203.552C146.529 196.204 146.012 188.742 148.079 181.394C149.456 176.4 152.097 171.865 154.852 167.445C157.894 162.623 161.913 158.777 165.644 154.587C170.982 148.502 177.526 144.197 184.357 140.236C185.62 139.49 186.998 139.03 188.376 138.571C195.034 136.39 201.923 135.357 208.926 135.586C214.035 135.758 219.201 135.816 224.138 136.906C230.912 138.399 237.857 139.777 244.172 143.106C249.453 145.919 254.332 149.133 258.924 152.979C263.574 156.883 266.903 161.762 270.577 166.412C272.644 168.995 273.964 172.209 275.514 175.194C279.532 182.886 282.402 190.98 284.354 199.476C284.813 201.428 285.043 203.437 285.043 205.446C284.871 213.425 285.043 221.289 284.411 229.154Z" fill="#E78D01"/>
</svg>
