<svg width="360" height="410" viewBox="0 0 360 410" fill="none" xmlns="http://www.w3.org/2000/svg">
<path d="M179.254 0L0 99.7483V305.838L179.254 410L360 305.838V99.7483L179.254 0ZM111.661 69.9958C111.661 69.9958 23.7551 161.718 131.744 270.868L37.8132 275.913C-8.20531 105.653 111.661 69.9958 111.661 69.9958ZM101.505 320.972C101.505 320.972 224.928 351.298 265.783 203.395L317.023 282.219C192.279 406.962 101.505 320.972 101.505 320.972ZM326.605 205C326.605 205 287.3 84.2701 139.949 127.609L180 42.5364C351.852 82.6077 326.605 205 326.605 205Z" fill="#339DD4"/>
</svg>
