<svg width="101" height="101" viewBox="0 0 101 101" fill="none" xmlns="http://www.w3.org/2000/svg">
<path d="M50.5 72.9883L78.5117 50.5L50.5 28.0117V44.8451H0V56.1549H50.5V72.9883ZM89.6901 0H39.1901C36.1215 0 33.4913 1.09591 31.2995 3.28776C29.1076 5.47961 28.0117 8.10979 28.0117 11.1784V33.6667H39.1901V11.1784H89.6901V89.8216H39.1901V67.3333H28.0117V89.8216C28.0117 92.8902 29.1076 95.5204 31.2995 97.7122C33.4913 99.9041 36.1215 101 39.1901 101H89.6901C92.8464 101 95.5204 99.9041 97.7122 97.7122C99.9041 95.5204 101 92.8902 101 89.8216V11.1784C101 8.10979 99.9041 5.47961 97.7122 3.28776C95.5204 1.09591 92.8464 0 89.6901 0Z" fill="white"/>
</svg>
