<svg width="401" height="400" viewBox="0 0 401 400" fill="none" xmlns="http://www.w3.org/2000/svg">
<path d="M336.801 53.9405L296.676 98.8874C323.484 124.317 340.246 160.252 340.246 200.147C340.246 223.108 334.677 244.692 324.861 263.807L236.231 182.122L213.04 113.87V235.622L286.688 310.017C262.981 328.615 233.131 339.694 200.641 339.694C169.643 339.694 140.999 329.591 117.808 312.485L193.924 235.622V113.87L170.733 182.122L78.3141 267.309C67.3501 247.39 61.0932 224.486 61.0932 200.147C61.0932 159.218 78.716 122.365 106.786 96.8208L66.7187 51.874C26.2494 88.4399 0.877075 141.308 0.877075 200.147C0.877075 310.476 90.3114 399.968 200.698 399.968C311.027 399.968 400.519 310.533 400.519 200.147C400.519 142.399 375.95 90.3917 336.801 53.9405Z" fill="white"/>
<path d="M200.699 60.5416C231.467 60.5416 259.881 70.5297 282.958 87.3489L322.394 41.6559C288.698 15.7096 246.507 0.268066 200.699 0.268066C155.981 0.268066 114.651 14.9633 81.3572 39.819L120.908 85.5694C143.525 69.8409 171.021 60.5416 200.699 60.5416Z" fill="white"/>
</svg>
