<svg width="101" height="101" viewBox="0 0 101 101" fill="none" xmlns="http://www.w3.org/2000/svg">
<path d="M43.2857 86.3367C48.264 86.3367 52.9891 85.5361 57.4612 83.9349C61.9332 82.3337 66.0255 80.1006 69.7381 77.2353L93.406 101L101 93.2891L77.3321 69.6508C80.2009 65.9428 82.4369 61.8557 84.0401 57.3892C85.6433 52.9228 86.4449 48.2036 86.4449 43.2315C86.4449 37.2482 85.3058 31.6442 83.0276 26.4193C80.7494 21.1944 77.6696 16.6227 73.7882 12.704C69.9068 8.78534 65.3083 5.68837 59.9925 3.41302C54.761 1.13766 49.1922 0 43.2857 0C37.2949 0 31.6838 1.13766 26.4524 3.41302C21.2209 5.68837 16.6435 8.78534 12.7199 12.704C8.79634 16.6227 5.6955 21.1944 3.41729 26.4193C1.13908 31.6442 0 37.2482 0 43.2315C0 49.1306 1.13908 54.6925 3.41729 59.9174C5.6955 65.2266 8.79634 69.8193 12.7199 73.6959C16.6435 77.5724 21.2209 80.6483 26.4524 82.9237C31.6838 85.199 37.2949 86.3367 43.2857 86.3367ZM43.2857 10.8711C47.7577 10.8711 51.9344 11.7138 55.8158 13.3993C59.7816 15.0847 63.2199 17.3811 66.131 20.2885C69.042 23.1959 71.3835 26.6299 73.1554 30.5907C74.843 34.5515 75.6867 38.7651 75.6867 43.2315C75.6867 47.698 74.843 51.8694 73.1554 55.7459C71.3835 59.7067 69.042 63.1408 66.131 66.0482C63.2199 68.9556 59.7816 71.2941 55.8158 73.0638C51.9344 74.7493 47.7577 75.592 43.2857 75.592C38.8137 75.592 34.5948 74.7493 30.6291 73.0638C26.6633 71.2941 23.225 68.9556 20.3139 66.0482C17.4029 63.1408 15.1036 59.7067 13.416 55.7459C11.7285 51.8694 10.8847 47.698 10.8847 43.2315C10.8847 38.7651 11.7285 34.5515 13.416 30.5907C15.1036 26.6299 17.4029 23.1959 20.3139 20.2885C23.225 17.3811 26.6633 15.0847 30.6291 13.3993C34.5948 11.7138 38.8137 10.8711 43.2857 10.8711Z" fill="white"/>
</svg>
