<svg width="397" height="400" viewBox="0 0 397 400" fill="none" xmlns="http://www.w3.org/2000/svg">
<path d="M197.983 129.542H91.7301C91.7301 129.542 80.8234 130.977 80.8234 153.422H158.547L169.454 165.132L197.983 129.542Z" fill="#7E38D8"/>
<path d="M205.392 152.905L226.516 129.542H338.568L299.763 162.204L294.367 152.905H205.392Z" fill="#7E38D8"/>
<path d="M201.603 167.313C201.603 167.313 184.899 217.369 212.969 249.228C241.039 281.029 276.113 278.504 299.476 257.264C299.476 257.264 228.64 269.721 242.704 167.313H201.603V167.313Z" fill="#7E38D8"/>
<path d="M60.9668 273.165L96.3849 237.116C96.3849 237.116 102.068 247.334 114.754 247.334C127.44 247.334 150.803 247.334 150.803 247.334L88.0039 167.313H135.419L194.2 247.391C194.2 247.391 204.246 263.234 187.484 273.165H60.9668Z" fill="#7E38D8"/>
<path d="M330.362 36.3762H201.779L169.862 0.326904H55.2278L34.7347 32.2432V326.206L74.2857 365.527H197.99L231.227 399.911H338.513L366.354 365.527V76.5011L330.362 36.3762ZM353.266 308.525L308.491 353.817H91.7366L46.4452 307.435V90.6797L90.6459 46.9958H309.582L353.266 93.6647V308.525V308.525Z" fill="#7E38D8"/>
<path d="M186.736 0.326904H346.719L396.373 49.7512V344.517L378.922 359.844V64.5612L331.966 19.1552H205.851L186.736 0.326904Z" fill="#7E38D8"/>
<path d="M209.698 399.969H49.7151L0.0610352 350.545V55.7791L17.5115 40.4524V335.735L64.4677 381.141H190.583L209.698 399.969Z" fill="#7E38D8"/>
</svg>
