<svg width="112" height="91" viewBox="0 0 112 91" fill="none" xmlns="http://www.w3.org/2000/svg">
<path d="M100.52 22.6833C100.52 23.217 100.52 23.7285 100.52 24.2177C100.52 24.707 100.52 25.2185 100.52 25.7522C100.52 33.3133 99.0958 40.9633 96.2479 48.7023C93.4001 56.4414 89.2173 63.4464 83.6996 69.7177C78.1819 75.989 71.3739 81.0816 63.2753 84.9956C55.1768 88.9986 45.8324 91 35.242 91C28.7453 91 22.5157 90.0882 16.553 88.2647C10.5904 86.4411 5.07273 83.8837 0 80.5924C0.978946 80.7703 1.91339 80.8592 2.80334 80.8592C3.69329 80.8592 4.62773 80.8592 5.60668 80.8592C10.9464 80.8592 16.0413 80.0142 20.8915 78.324C25.7418 76.6339 30.1247 74.2322 34.0405 71.1188C29.0568 71.0298 24.6071 69.4954 20.6913 66.5154C16.7755 63.5354 14.0612 59.7771 12.5483 55.2405C13.2602 55.3294 13.9944 55.4184 14.7509 55.5073C15.5074 55.5963 16.2416 55.6408 16.9535 55.6408C18.0215 55.6408 19.0449 55.5518 20.0238 55.3739C21.0028 55.196 21.9817 55.0181 22.9607 54.8402C17.7099 53.7727 13.327 51.1486 9.81168 46.9677C6.29637 42.7869 4.53873 37.8945 4.53873 32.2903V32.0235C6.14065 32.8241 7.80929 33.4912 9.5447 34.0249C11.2801 34.5587 13.0822 34.87 14.9511 34.9589C11.8363 32.913 9.34447 30.1999 7.47556 26.8196C5.60667 23.4394 4.67223 19.7923 4.67223 15.8783C4.67223 13.7434 4.96146 11.6975 5.53993 9.74047C6.1184 7.78347 6.8971 5.95993 7.87604 4.26979C10.7239 7.73902 13.8832 10.8969 17.354 13.7434C20.8248 16.5899 24.5626 19.0362 28.5673 21.0821C32.5721 23.1281 36.8438 24.7737 41.3826 26.0191C45.8324 27.2644 50.4156 28.0205 55.1323 28.2874C54.9543 27.3978 54.8208 26.5083 54.7318 25.6188C54.6428 24.7292 54.5983 23.8397 54.5983 22.9501C54.5983 16.6344 56.8232 11.2305 61.2729 6.73827C65.7227 2.24607 71.1513 0 77.559 0C80.8518 0 83.9444 0.667151 86.8367 2.00147C89.7291 3.33578 92.1986 5.11485 94.2455 7.33871C96.9154 6.80498 99.474 6.07112 101.921 5.1371C104.369 4.20307 106.66 3.06892 108.796 1.7346C107.995 4.40324 106.727 6.82721 104.992 9.0066C103.256 11.186 101.187 12.9873 98.7843 14.4106C101.098 14.1437 103.367 13.6989 105.592 13.0762C107.817 12.4536 109.953 11.6975 112 10.8079C110.398 13.1207 108.64 15.2778 106.727 17.2793C104.814 19.2808 102.745 21.0821 100.52 22.6833Z" fill="white"/>
</svg>
