<svg width="400" height="400" viewBox="0 0 400 400" fill="none" xmlns="http://www.w3.org/2000/svg">
<path d="M374.901 296.086C390.63 267.499 399.642 234.722 399.642 199.764C399.642 164.805 390.63 131.913 374.844 103.326H374.901V45.8079H327.199V45.8653C292.585 17.221 248.212 0 199.764 0C151.373 0 106.942 17.221 72.3856 45.8653H24.7408V103.441H24.7982C9.01232 131.97 0 164.805 0 199.764C0 234.722 9.01232 267.499 24.7408 296.086V352.858H71.4671C106.196 382.019 150.913 399.585 199.821 399.585C248.671 399.585 293.446 382.019 328.175 352.858H374.901V296.086ZM199.821 370.079C105.737 370.079 29.5053 293.79 29.5053 199.764C29.5053 105.68 105.737 29.4479 199.821 29.4479C293.905 29.4479 370.137 105.737 370.137 199.764C370.137 293.848 293.905 370.079 199.821 370.079Z" fill="#FFD600"/>
<path d="M257.625 90.6393L259.749 110.501L234.032 239.888L199.82 106.597L165.607 239.888L139.891 110.501L142.014 90.6393H77.8375C85.2426 95.1742 91.9013 108.664 91.9013 108.664L136.159 297.177L124.219 317.842H192.759L186.502 298.21L199.762 231.852L213.022 298.21L206.823 317.842H275.305L263.365 297.177L307.623 108.664C307.623 108.664 314.224 95.1168 321.687 90.6393H257.625Z" fill="#FFD600"/>
</svg>
