<svg width="116" height="81" viewBox="0 0 116 81" fill="none" xmlns="http://www.w3.org/2000/svg">
<path d="M113.555 12.7324C112.921 10.2943 111.699 8.14968 109.888 6.29849C108.076 4.44732 105.903 3.20569 103.368 2.57358C101.104 1.94147 97.4817 1.44482 92.5012 1.08361C87.4301 0.812708 82.3591 0.586957 77.2881 0.406357C72.217 0.225751 67.7346 0.135451 63.8407 0.135451C59.9469 0.0451502 58 0 58 0C58 0 56.0531 0.0451502 52.1592 0.135451C48.2654 0.135451 43.783 0.203178 38.7119 0.338629C33.6409 0.474079 28.5699 0.677258 23.4988 0.948159C18.5183 1.30937 14.8962 1.80602 12.6323 2.43813C10.1873 3.07024 8.0367 4.31187 6.18033 6.16304C4.32396 8.01422 3.07885 10.1589 2.44496 12.597C1.1772 17.2024 0.452773 23.0041 0.271661 30.0025C0.0905536 37.0009 0 40.5 0 40.5C0 40.5 0.0905536 44.0217 0.271661 51.0652C0.452773 58.1087 1.13192 63.8428 2.30913 68.2676C2.94302 70.796 4.18812 72.9632 6.0445 74.7692C7.90087 76.5753 10.0515 77.8395 12.4965 78.5619C14.8509 79.1037 18.5183 79.5552 23.4988 79.9164C28.4793 80.2776 33.5277 80.5485 38.644 80.7291C43.7604 80.9097 48.2654 81 52.1592 81C55.9625 81 57.8642 81 57.8642 81C57.8642 81 59.8111 81 63.7049 81C67.5988 81 72.1038 80.9323 77.2201 80.7968C82.3365 80.6614 87.3848 80.413 92.3653 80.0518C97.3458 79.7809 100.968 79.3294 103.232 78.6973C105.767 78.0652 107.941 76.8236 109.752 74.9724C111.563 73.1212 112.831 70.9766 113.555 68.5385C114.732 64.0234 115.434 58.2442 115.66 51.2007C115.887 44.1572 116 40.6354 116 40.6354C116 40.6354 115.909 37.1137 115.728 30.0702C115.547 23.0267 114.823 17.2475 113.555 12.7324ZM46.3185 57.8378L46.4543 23.1622L76.6089 40.5L46.3185 57.8378Z" fill="white"/>
</svg>
